<?xml version="1.0" standalone="no"?>
<!DOCTYPE svg PUBLIC "-//W3C//DTD SVG 20010904//EN"
 "http://www.w3.org/TR/2001/REC-SVG-20010904/DTD/svg10.dtd">
<svg version="1.0" xmlns="http://www.w3.org/2000/svg"
 width="900.000000pt" height="900.000000pt" viewBox="0 0 900.000000 900.000000"
 preserveAspectRatio="xMidYMid meet">

<g transform="translate(0.000000,900.000000) scale(0.100000,-0.100000)"
fill="#000000" stroke="none">
<path d="M3969 7832 c-454 -455 -836 -841 -849 -857 -125 -154 -208 -280 -284
-433 -105 -209 -171 -414 -212 -662 -23 -132 -26 -490 -6 -625 69 -460 253
-852 560 -1190 50 -55 435 -444 857 -865 l765 -765 72 75 c40 41 422 426 850
856 428 429 778 785 778 790 0 6 8 19 19 30 34 37 147 207 198 299 211 378
305 836 263 1276 -12 124 -38 276 -61 354 -56 192 -86 271 -169 437 -143 287
-177 327 -999 1151 -631 632 -945 946 -954 954 -2 1 -374 -370 -828 -825z
m1051 -287 c118 -118 212 -216 210 -219 -59 -64 -1977 -1976 -1982 -1976 -5 0
-8 1 -8 3 -23 210 -16 356 26 546 51 228 158 450 307 636 54 67 1209 1225
1222 1225 6 0 107 -97 225 -215z m831 -832 c85 -87 173 -183 194 -213 22 -30
43 -56 47 -58 5 -2 8 -9 8 -15 0 -7 -493 -505 -1095 -1107 l-1095 -1095 -61
60 c-202 197 -370 386 -357 401 50 60 2178 2182 2189 2183 8 0 85 -70 170
-156z m513 -1066 c25 -393 -110 -798 -370 -1107 -73 -87 -1191 -1206 -1198
-1200 -49 47 -420 417 -428 427 -9 11 195 220 973 998 541 542 991 985 1000
985 13 0 17 -17 23 -103z"/>
<path d="M2619 4043 c-21 -131 -17 -490 5 -623 49 -289 128 -517 266 -765 52
-95 155 -238 243 -340 52 -60 449 -463 881 -895 l786 -784 770 774 c905 911
868 873 950 975 343 430 512 1005 460 1565 -13 138 -20 180 -30 180 -4 0 -10
-10 -13 -22 -2 -13 -18 -66 -35 -118 -89 -280 -207 -501 -391 -730 -42 -52
-444 -464 -894 -915 l-817 -820 -848 850 c-890 892 -925 929 -1052 1144 -96
163 -164 316 -222 503 -18 60 -36 108 -39 108 -4 0 -13 -39 -20 -87z"/>
</g>
</svg>
